<svg width="320" height="78" viewBox="0 0 320 78" fill="none" xmlns="http://www.w3.org/2000/svg">
<path d="M34.69 34.425C36.56 34.425 38.005 34.935 39.025 35.955C40.1017 36.975 40.64 38.3917 40.64 40.205C40.64 40.6583 40.5833 41.14 40.47 41.65C40.4133 42.1033 40.3283 42.5 40.215 42.84C39.4783 42.7267 38.6567 42.6417 37.75 42.585C36.8433 42.4717 35.7667 42.415 34.52 42.415C32.0833 42.415 29.6183 42.6417 27.125 43.095C24.6317 43.4917 22.2517 43.8317 19.985 44.115C18.6817 47.1183 17.4917 50.0367 16.415 52.87C15.3383 55.6467 14.4033 58.1967 13.61 60.52C12.8733 62.8433 12.2783 64.855 11.825 66.555C11.4283 68.255 11.2017 69.53 11.145 70.38C15.735 69.4167 20.3533 68.595 25 67.915C29.7033 67.235 34.6333 66.725 39.79 66.385C40.4133 67.3483 40.9233 68.3967 41.32 69.53C41.7733 70.6633 42 71.8817 42 73.185C42 73.525 42 73.8933 42 74.29C42 74.6867 41.9433 75.0833 41.83 75.48C40.2433 75.4233 38.5717 75.3667 36.815 75.31C35.0583 75.31 32.7633 75.31 29.93 75.31C28.06 75.31 26.275 75.3383 24.575 75.395C22.9317 75.5083 21.26 75.65 19.56 75.82C17.86 75.99 16.0467 76.2167 14.12 76.5C12.25 76.7833 10.125 77.1233 7.74499 77.52C5.13833 76.5 2.61666 74.0067 0.179993 70.04C1.14333 68 2.47499 64.9117 4.17499 60.775C5.93166 56.5817 8.14166 51 10.805 44.03C8.25499 43.2367 6.58333 41.82 5.78999 39.78C6.07333 39.4967 6.89499 39.1567 8.25499 38.76C9.61499 38.3067 11.2867 37.8533 13.27 37.4C14.12 35.19 14.8283 33.2633 15.395 31.62C16.0183 29.9767 16.5567 28.4467 17.01 27.03C17.4633 25.5567 17.86 24.14 18.2 22.78C18.5967 21.3633 18.965 19.8333 19.305 18.19C17.3217 18.0767 15.7633 17.5383 14.63 16.575C13.4967 15.555 12.93 14.2517 12.93 12.665C12.93 12.2117 12.9867 11.6733 13.1 11.05C13.27 10.4267 13.44 9.88833 13.61 9.435C14.7433 9.605 15.82 9.71833 16.84 9.775C17.9167 9.83167 19.305 9.86 21.005 9.86C24.575 9.86 27.9183 9.775 31.035 9.605C34.1517 9.37833 36.9567 9.15166 39.45 8.925C42 8.69833 44.1817 8.5 45.995 8.33C47.8083 8.10333 49.1967 7.99 50.16 7.99C51.4633 7.99 52.625 8.67 53.645 10.03C54.665 11.39 55.43 13.3167 55.94 15.81C54.1833 15.64 52.7383 15.5267 51.605 15.47C50.5283 15.4133 49.565 15.385 48.715 15.385C45.5983 15.385 42.7367 15.555 40.13 15.895C37.58 16.1783 35.115 16.49 32.735 16.83C32.395 17.34 31.9983 17.9917 31.545 18.785C31.1483 19.5783 30.61 20.6833 29.93 22.1C29.25 23.5167 28.4 25.3017 27.38 27.455C26.4167 29.6083 25.2267 32.3 23.81 35.53C25.9633 35.19 27.975 34.935 29.845 34.765C31.7717 34.5383 33.3867 34.425 34.69 34.425Z" fill="#026E00"/>
<path d="M78.7067 36.295C79.2734 36.295 79.925 36.4083 80.6617 36.635C81.455 36.805 82.1634 37.06 82.7867 37.4C83.41 37.6833 83.92 37.995 84.3167 38.335C84.77 38.675 84.9967 38.9867 84.9967 39.27C83.8634 41.65 82.815 44.0583 81.8517 46.495C80.8884 48.875 80.0667 51.17 79.3867 53.38C78.7067 55.59 78.1684 57.6583 77.7717 59.585C77.4317 61.5117 77.2617 63.1833 77.2617 64.6C77.2617 66.1867 77.4317 67.5183 77.7717 68.595C78.1117 69.615 78.6784 70.3517 79.4717 70.805C78.7917 71.2583 77.9134 71.6267 76.8367 71.91C75.76 72.1933 74.7967 72.335 73.9467 72.335C70.8867 72.335 69.3567 70.2383 69.3567 66.045C69.3567 62.815 70.4334 58.395 72.5867 52.785C71.4534 55.3917 70.15 57.8567 68.6767 60.18C67.2034 62.4467 65.7017 64.4583 64.1717 66.215C62.6417 67.9717 61.0834 69.4167 59.4967 70.55C57.9667 71.6267 56.55 72.2783 55.2467 72.505C53.15 72.3917 51.45 71.4 50.1467 69.53C48.8434 67.6033 48.1917 65.1667 48.1917 62.22C48.1917 59.0467 48.8717 55.7033 50.2317 52.19C51.5917 48.6767 53.32 45.4183 55.4167 42.415C57.57 39.4117 59.8934 36.9183 62.3867 34.935C64.88 32.895 67.2884 31.8183 69.6117 31.705C70.1784 31.875 70.8017 32.215 71.4817 32.725C72.2184 33.235 72.8984 33.83 73.5217 34.51C74.2017 35.19 74.7684 35.8983 75.2217 36.635C75.675 37.315 75.93 37.91 75.9867 38.42C73.72 38.76 71.3684 39.865 68.9317 41.735C66.5517 43.605 64.37 45.8717 62.3867 48.535C60.46 51.1417 58.8734 53.9467 57.6267 56.95C56.38 59.9533 55.7567 62.7583 55.7567 65.365C55.7567 66.4417 56.1534 67.1217 56.9467 67.405C58.59 67.065 60.4884 65.6767 62.6417 63.24C64.795 60.7467 67.4017 56.9217 70.4617 51.765C71.0284 50.745 71.6517 49.6117 72.3317 48.365C73.0684 47.1183 73.805 45.815 74.5417 44.455C75.2784 43.095 75.9867 41.735 76.6667 40.375C77.4034 38.9583 78.0834 37.5983 78.7067 36.295Z" fill="#026E00"/>
<path d="M92.9123 38.08C92.629 37.74 92.374 37.0317 92.1473 35.955C91.9207 34.8217 91.8073 33.8583 91.8073 33.065C93.2807 33.1783 94.6973 33.2917 96.0573 33.405C97.4173 33.4617 98.664 33.5183 99.7973 33.575C100.647 31.875 101.554 30.2033 102.517 28.56C103.537 26.86 104.501 25.33 105.407 23.97C106.371 22.5533 107.249 21.3633 108.042 20.4C108.892 19.4367 109.544 18.8133 109.997 18.53C110.564 18.53 111.272 18.6433 112.122 18.87C113.029 19.04 113.936 19.295 114.842 19.635C115.749 19.9183 116.571 20.23 117.307 20.57C118.044 20.91 118.554 21.25 118.837 21.59C117.137 23.7433 115.664 25.755 114.417 27.625C113.227 29.4383 111.924 31.535 110.507 33.915C111.641 33.915 112.774 33.8867 113.907 33.83C115.097 33.7733 116.287 33.6883 117.477 33.575C117.761 33.8583 117.987 34.2267 118.157 34.68C118.327 35.0767 118.412 35.5017 118.412 35.955C115.636 36.975 112.264 37.5417 108.297 37.655C106.881 40.375 105.606 43.095 104.472 45.815C103.396 48.4783 102.461 51.0567 101.667 53.55C100.931 56.0433 100.336 58.395 99.8823 60.605C99.4857 62.815 99.2873 64.7983 99.2873 66.555C99.2873 69.0483 100.222 70.4367 102.092 70.72C103.792 70.4933 105.407 70.0683 106.937 69.445C108.467 68.8217 109.827 68.0283 111.017 67.065C111.357 67.575 111.556 68 111.612 68.34C111.272 68.85 110.677 69.445 109.827 70.125C109.034 70.805 108.156 71.4567 107.192 72.08C106.229 72.76 105.294 73.3267 104.387 73.78C103.481 74.2333 102.801 74.4883 102.347 74.545C100.931 74.4883 99.514 74.1767 98.0973 73.61C96.6807 73.0433 95.3773 72.335 94.1873 71.485C93.054 70.635 92.119 69.7 91.3823 68.68C90.6457 67.6033 90.2773 66.555 90.2773 65.535C90.2773 64.175 90.4473 62.475 90.7873 60.435C91.184 58.3383 91.7223 56.0717 92.4023 53.635C93.0823 51.1983 93.8757 48.6483 94.7823 45.985C95.689 43.3217 96.6807 40.6867 97.7573 38.08H92.9123Z" fill="#026E00"/>
<path d="M164.214 43.605C165.687 43.605 166.849 44.115 167.699 45.135C168.549 46.155 168.974 47.5717 168.974 49.385C168.974 49.8383 168.946 50.32 168.889 50.83C168.832 51.2833 168.747 51.68 168.634 52.02C167.444 51.7367 166.141 51.5667 164.724 51.51C164.384 54.0033 163.477 56.6383 162.004 59.415C160.531 62.135 158.746 64.7133 156.649 67.15C154.552 69.53 152.257 71.6267 149.764 73.44C147.271 75.2533 144.806 76.4717 142.369 77.095C134.776 76.925 129.222 74.9417 125.709 71.145C122.252 67.405 120.524 61.54 120.524 53.55C120.524 47.7133 121.601 42.075 123.754 36.635C125.907 31.1383 128.769 26.265 132.339 22.015C135.909 17.765 139.989 14.365 144.579 11.815C149.226 9.20833 154.042 7.905 159.029 7.905C162.939 7.905 165.971 8.72667 168.124 10.37C170.334 12.0133 171.439 14.3367 171.439 17.34C171.439 19.3233 170.957 21.165 169.994 22.865C169.087 24.565 167.557 26.4067 165.404 28.39C164.101 27.9933 162.967 27.3133 162.004 26.35C161.041 25.33 160.446 24.1683 160.219 22.865C162.146 21.4483 163.506 20.145 164.299 18.955C165.092 17.765 165.489 16.3483 165.489 14.705C165.489 12.0983 163.931 10.795 160.814 10.795C158.264 10.795 155.516 11.7583 152.569 13.685C149.679 15.555 146.761 18.275 143.814 21.845C139.621 26.8883 136.561 32.1017 134.634 37.485C132.707 42.8117 131.744 48.8183 131.744 55.505C131.744 57.9983 131.999 60.265 132.509 62.305C133.019 64.345 133.699 66.13 134.549 67.66C135.399 69.19 136.391 70.4083 137.524 71.315C138.714 72.2217 139.989 72.7317 141.349 72.845C143.162 72.4483 144.976 71.5417 146.789 70.125C148.602 68.6517 150.246 66.9517 151.719 65.025C153.249 63.0417 154.524 60.945 155.544 58.735C156.621 56.4683 157.272 54.315 157.499 52.275C155.912 52.615 154.382 52.955 152.909 53.295C151.492 53.5783 150.132 53.72 148.829 53.72C147.129 53.72 145.627 53.295 144.324 52.445C143.077 51.595 142.227 50.4333 141.774 48.96C142.794 48.3933 144.267 47.7983 146.194 47.175C148.177 46.5517 150.274 45.985 152.484 45.475C154.694 44.9083 156.847 44.455 158.944 44.115C161.097 43.775 162.854 43.605 164.214 43.605Z" fill="#026E00"/>
<path d="M182.097 73.61C178.867 73.27 176.289 71.8533 174.362 69.36C172.436 66.8667 171.472 63.6933 171.472 59.84C171.472 57.5733 171.812 55.2217 172.492 52.785C173.172 50.3483 174.136 47.9967 175.382 45.73C176.629 43.4067 178.102 41.225 179.802 39.185C181.502 37.145 183.344 35.3883 185.327 33.915C188.444 31.5917 191.362 30.43 194.082 30.43C195.896 31.3933 197.681 33.405 199.437 36.465C199.721 36.465 199.976 36.465 200.202 36.465C200.429 36.4083 200.684 36.38 200.967 36.38C203.971 36.38 205.472 39.0433 205.472 44.37C205.472 47.94 204.877 51.34 203.687 54.57C202.554 57.7433 200.939 60.6333 198.842 63.24C196.802 65.8467 194.337 68.0567 191.447 69.87C188.614 71.6267 185.497 72.8733 182.097 73.61ZM186.432 46.835C185.469 48.1383 184.562 49.555 183.712 51.085C182.862 52.615 182.126 54.1733 181.502 55.76C180.879 57.29 180.397 58.7917 180.057 60.265C179.717 61.6817 179.547 62.9567 179.547 64.09C179.547 65.45 179.774 66.7533 180.227 68C180.681 69.2467 181.191 69.955 181.757 70.125C184.307 69.5583 186.631 68.51 188.727 66.98C190.881 65.3933 192.722 63.4383 194.252 61.115C195.839 58.7917 197.057 56.1567 197.907 53.21C198.814 50.2633 199.267 47.1183 199.267 43.775C199.267 42.3017 199.182 41.14 199.012 40.29C198.842 39.44 198.559 38.7033 198.162 38.08C195.669 38.8167 193.431 40.0067 191.447 41.65C189.521 43.2933 187.849 45.0217 186.432 46.835Z" fill="#026E00"/>
<path d="M219.617 73.61C216.387 73.27 213.808 71.8533 211.882 69.36C209.955 66.8667 208.992 63.6933 208.992 59.84C208.992 57.5733 209.332 55.2217 210.012 52.785C210.692 50.3483 211.655 47.9967 212.902 45.73C214.148 43.4067 215.622 41.225 217.322 39.185C219.022 37.145 220.863 35.3883 222.847 33.915C225.963 31.5917 228.882 30.43 231.602 30.43C233.415 31.3933 235.2 33.405 236.957 36.465C237.24 36.465 237.495 36.465 237.722 36.465C237.948 36.4083 238.203 36.38 238.487 36.38C241.49 36.38 242.992 39.0433 242.992 44.37C242.992 47.94 242.397 51.34 241.207 54.57C240.073 57.7433 238.458 60.6333 236.362 63.24C234.322 65.8467 231.857 68.0567 228.967 69.87C226.133 71.6267 223.017 72.8733 219.617 73.61ZM223.952 46.835C222.988 48.1383 222.082 49.555 221.232 51.085C220.382 52.615 219.645 54.1733 219.022 55.76C218.398 57.29 217.917 58.7917 217.577 60.265C217.237 61.6817 217.067 62.9567 217.067 64.09C217.067 65.45 217.293 66.7533 217.747 68C218.2 69.2467 218.71 69.955 219.277 70.125C221.827 69.5583 224.15 68.51 226.247 66.98C228.4 65.3933 230.242 63.4383 231.772 61.115C233.358 58.7917 234.577 56.1567 235.427 53.21C236.333 50.2633 236.787 47.1183 236.787 43.775C236.787 42.3017 236.702 41.14 236.532 40.29C236.362 39.44 236.078 38.7033 235.682 38.08C233.188 38.8167 230.95 40.0067 228.967 41.65C227.04 43.2933 225.368 45.0217 223.952 46.835Z" fill="#026E00"/>
<path d="M265.636 30.94C266.77 30.94 268.073 31.28 269.546 31.96C271.02 32.64 272.323 33.5183 273.456 34.595C273.173 32.3283 272.805 30.2033 272.351 28.22C271.955 26.18 271.331 24.0833 270.481 21.93C269.688 19.7767 268.611 17.425 267.251 14.875C265.891 12.325 264.191 9.40667 262.151 6.12C262.321 5.61 262.69 5.015 263.256 4.335C263.88 3.655 264.56 3.03166 265.296 2.465C266.09 1.84167 266.883 1.30333 267.676 0.849999C268.526 0.396665 269.32 0.113332 270.056 0C271.643 1.75667 273.145 3.96667 274.561 6.63C275.978 9.23667 277.225 12.07 278.301 15.13C279.378 18.1333 280.2 21.25 280.766 24.48C281.39 27.71 281.701 30.7983 281.701 33.745C281.701 36.6917 281.361 39.7233 280.681 42.84C280.058 45.9567 279.151 49.0167 277.961 52.02C276.828 54.9667 275.496 57.7717 273.966 60.435C272.436 63.0983 270.765 65.4783 268.951 67.575C267.195 69.6717 265.353 71.3717 263.426 72.675C261.5 74.035 259.573 74.885 257.646 75.225C253.736 74.7717 250.733 73.4967 248.636 71.4C246.596 69.36 245.576 66.5267 245.576 62.9C245.576 60.9733 245.86 58.8767 246.426 56.61C247.05 54.3433 247.843 52.105 248.806 49.895C249.826 47.6283 250.988 45.4467 252.291 43.35C253.651 41.1967 255.068 39.27 256.541 37.57C258.071 35.87 259.601 34.425 261.131 33.235C262.661 32.045 264.163 31.28 265.636 30.94ZM256.966 71.825C258.95 71.145 260.933 69.6433 262.916 67.32C264.9 64.9967 266.685 62.2767 268.271 59.16C269.858 55.9867 271.133 52.615 272.096 49.045C273.116 45.4183 273.626 41.9333 273.626 38.59C273.626 37.6267 273.626 37.0317 273.626 36.805C273.626 36.5783 273.598 36.3517 273.541 36.125C272.181 36.6917 270.736 37.655 269.206 39.015C267.676 40.375 266.146 41.9617 264.616 43.775C263.086 45.5317 261.641 47.4583 260.281 49.555C258.921 51.6517 257.703 53.7483 256.626 55.845C255.55 57.9417 254.7 59.9533 254.076 61.88C253.453 63.8067 253.141 65.5067 253.141 66.98C253.141 69.8133 254.416 71.4283 256.966 71.825Z" fill="#026E00"/>
<path d="M287.789 54.655C287.789 53.125 288.185 50.915 288.979 48.025C289.829 45.0783 290.905 41.8483 292.209 38.335C293.512 34.765 294.985 31.11 296.629 27.37C298.272 23.5733 299.915 20.0317 301.559 16.745C303.259 13.4583 304.874 10.625 306.404 8.245C307.934 5.80833 309.265 4.19334 310.399 3.4C311.305 3.57 312.269 3.995 313.289 4.675C314.365 5.29833 315.357 6.035 316.264 6.885C317.17 7.67833 317.964 8.52833 318.644 9.435C319.324 10.3417 319.72 11.135 319.834 11.815C316.944 14.195 314.082 17.17 311.249 20.74C308.415 24.2533 305.78 28.1633 303.344 32.47C300.964 36.7767 298.867 41.395 297.054 46.325C295.24 51.1983 293.88 56.185 292.974 61.285C292.294 61.115 291.614 60.9167 290.934 60.69C290.31 60.4067 289.772 60.0383 289.319 59.585C288.865 59.1317 288.497 58.5083 288.214 57.715C287.93 56.9217 287.789 55.9017 287.789 54.655ZM285.919 77.18C285.239 77.18 284.587 77.01 283.964 76.67C283.34 76.3867 282.774 76.0183 282.264 75.565C281.81 75.1683 281.442 74.715 281.159 74.205C280.875 73.7517 280.734 73.3833 280.734 73.1C280.734 72.42 280.819 71.5417 280.989 70.465C281.159 69.3883 281.414 68.3683 281.754 67.405C282.094 66.385 282.519 65.535 283.029 64.855C283.539 64.1183 284.105 63.75 284.729 63.75C286.315 63.75 287.902 64.3167 289.489 65.45C291.132 66.5267 292.35 67.745 293.144 69.105C292.464 69.8417 291.869 70.6633 291.359 71.57C290.849 72.5333 290.339 73.4117 289.829 74.205C289.319 75.055 288.752 75.7633 288.129 76.33C287.505 76.8967 286.769 77.18 285.919 77.18Z" fill="#026E00"/>
</svg>
